# xmcd
#
# Track frame offsets: 
#        150
#        18344
#        35279
#        50941
#        68024
#        83733
#        98779
#        111116
#        126699
#        142484
#        166433
#
# Disc length: 2526 seconds
#
# Revision: 2
# Processed by: cddbd v1.5.2PL0 Copyright (c) Steve Scherf et al.
# Submitted via: ExactAudioCopyFreeDBPlugin 1.0
#
DISCID=a009dc0b
DTITLE=The Doobie Brothers - Minute By Minute
DYEAR=2003
DGENRE=Blues
TTITLE0=Here To Love You
TTITLE1=What A Fool Believes
TTITLE2=Minute By Minute
TTITLE3=Dependin' On You
TTITLE4=Don't Stop To Watch The Wheels
TTITLE5=Open Your Eyes
TTITLE6=Sweet Feelin'
TTITLE7=Steamer Lane Breakdown - instrumental
TTITLE8=You Never Change
TTITLE9=How Do The Fools Survive
TTITLE10=Listen To The Music -live-
EXTD=
EXTT0=
EXTT1=
EXTT2=
EXTT3=
EXTT4=
EXTT5=
EXTT6=
EXTT7=
EXTT8=
EXTT9=
EXTT10=
PLAYORDER=
